<svg width="12" height="12" viewBox="0 0 12 12" fill="none" xmlns="http://www.w3.org/2000/svg">
  <path
    d="M10.5 10.5V7.25C10.5 7.11739 10.5527 6.99021 10.6464 6.89645C10.7402 6.80268 10.8674 6.75 11 6.75C11.1326 6.75 11.2598 6.80268 11.3536 6.89645C11.4473 6.99021 11.5 7.11739 11.5 7.25V11C11.5 11.1326 11.4473 11.2598 11.3536 11.3536C11.2598 11.4473 11.1326 11.5 11 11.5H1C0.867392 11.5 0.740215 11.4473 0.646447 11.3536C0.552679 11.2598 0.5 11.1326 0.5 11V1C0.5 0.867392 0.552679 0.740215 0.646447 0.646447C0.740215 0.552679 0.867392 0.5 1 0.5H4.75C4.88261 0.5 5.00979 0.552679 5.10355 0.646447C5.19732 0.740215 5.25 0.867392 5.25 1C5.25 1.13261 5.19732 1.25979 5.10355 1.35355C5.00979 1.44732 4.88261 1.5 4.75 1.5H1.5V10.5H10.5Z"
    fill="#d6d3d1" />
  <path
    d="M6.35365 6.35399C6.25977 6.44788 6.13243 6.50062 5.99965 6.50062C5.86688 6.50062 5.73954 6.44788 5.64565 6.35399C5.55177 6.2601 5.49902 6.13277 5.49902 5.99999C5.49902 5.86722 5.55177 5.73988 5.64565 5.64599L10.6457 0.645991C10.6921 0.599503 10.7473 0.562627 10.8081 0.537467C10.8688 0.512308 10.9339 0.499359 10.9997 0.499359C11.0654 0.499359 11.1305 0.512308 11.1912 0.537467C11.252 0.562627 11.3072 0.599503 11.3537 0.645991C11.4001 0.692479 11.437 0.747668 11.4622 0.808407C11.4873 0.869147 11.5003 0.934247 11.5003 0.999991C11.5003 1.06573 11.4873 1.13084 11.4622 1.19157C11.437 1.25231 11.4001 1.3075 11.3537 1.35399L6.35365 6.35399Z"
    fill="#d6d3d1" />
  <path
    d="M11.5 4.5C11.5 4.63261 11.4473 4.75979 11.3536 4.85355C11.2598 4.94732 11.1326 5 11 5C10.8674 5 10.7402 4.94732 10.6464 4.85355C10.5527 4.75979 10.5 4.63261 10.5 4.5V1C10.5 0.867392 10.5527 0.740215 10.6464 0.646447C10.7402 0.552679 10.8674 0.5 11 0.5C11.1326 0.5 11.2598 0.552679 11.3536 0.646447C11.4473 0.740215 11.5 0.867392 11.5 1V4.5Z"
    fill="#d6d3d1" />
  <path
    d="M7.5 1.5C7.36739 1.5 7.24021 1.44732 7.14645 1.35355C7.05268 1.25979 7 1.13261 7 1C7 0.867392 7.05268 0.740215 7.14645 0.646447C7.24021 0.552679 7.36739 0.5 7.5 0.5H11C11.1326 0.5 11.2598 0.552679 11.3536 0.646447C11.4473 0.740215 11.5 0.867392 11.5 1C11.5 1.13261 11.4473 1.25979 11.3536 1.35355C11.2598 1.44732 11.1326 1.5 11 1.5H7.5Z"
    fill="#d6d3d1" />
</svg>