<svg width="200" height="200" viewBox="0 0 200 200" fill="none" xmlns="http://www.w3.org/2000/svg">
<path d="M84.8747 12.2818C93.458 4.79205 106.226 4.79568 114.807 12.287C141.249 35.3696 164.63 58.7521 187.713 85.1932C195.204 93.7746 195.209 106.543 187.719 115.125C164.775 141.417 141.417 164.775 115.125 187.719C106.543 195.209 93.7747 195.204 85.1933 187.713C58.7521 164.63 35.3698 141.249 12.2871 114.807C4.79579 106.226 4.79219 93.4579 12.2819 84.8746C35.2253 58.5834 58.5835 35.2252 84.8747 12.2818Z" fill="#FFCE51"/>
<path d="M99.988 100.006C107.778 92.216 142.393 89.7354 162.99 94.1247C171.316 95.8987 172.561 104.964 167.033 111.437C149.891 131.505 131.488 149.908 111.42 167.049C104.947 172.578 95.882 171.333 94.1073 163.007C89.7187 142.411 92.1987 107.796 99.988 100.006Z" fill="#E37B00"/>
<path d="M88.5573 32.9616C95.0306 27.4326 104.095 28.6778 105.87 37.0039C110.259 57.6007 107.778 92.216 99.988 100.006C92.198 107.795 57.5841 110.276 36.9876 105.887C28.6614 104.113 27.4162 95.0473 32.9452 88.574C50.086 68.5067 68.4893 50.1025 88.5573 32.9616Z" fill="#E37B00"/>
</svg>
