<svg width="201" height="201" viewBox="0 0 201 201" fill="none" xmlns="http://www.w3.org/2000/svg">
<path d="M92.7199 197.058C100.958 201.813 111.099 201.801 119.312 197.021L136.802 186.856L74.5636 150.926C55.7526 140.069 44.1671 119.998 44.1671 98.2724V26.3757L26.6036 36.4544C18.3653 41.1849 13.2766 49.9666 13.2766 59.4648V115.898C13.2766 137.735 24.9238 157.917 43.8336 168.835L92.7076 197.045L92.7199 197.058Z" fill="url(#paint0_linear_134_14)"/>
<path d="M115.631 7.42883C105.775 11.9123 98.5126 21.0893 96.6846 32.119C96.4005 33.8729 96.2399 35.6638 96.2399 37.4918V85.4641C96.2399 90.9851 97.7344 96.2962 100.402 100.916C103.058 105.535 106.924 109.463 111.704 112.217L126.525 120.752C133.985 125.05 142.644 127.508 151.87 127.508C166.494 127.508 179.685 121.345 188.973 111.476V139.069C188.973 144.565 187.503 149.839 184.86 154.434C182.192 159.065 178.339 163.005 173.546 165.772C164.011 171.281 152.253 171.281 142.718 165.772L111.086 147.517L88.0757 134.227C74.0324 126.124 65.3865 111.13 65.3865 94.9252V31.8473C65.3865 26.3386 66.8563 21.0276 69.5118 16.4206C72.1673 11.8012 76.0209 7.88583 80.7885 5.1315C90.3484 -0.377166 102.094 -0.377166 111.63 5.1315L115.631 7.44118V7.42883Z" fill="url(#paint1_linear_134_14)"/>
<path d="M166.272 36.6765C180.315 44.7789 188.973 59.761 188.973 75.9782V76.0276C188.973 96.049 173.3 112.871 153.291 113.625C149.486 113.761 145.806 113.328 142.323 112.402C151.512 107.239 158.095 97.4941 158.095 85.4516C158.095 77.3121 154.909 69.642 149.4 63.9481C147.436 61.9101 145.176 60.1315 142.644 58.6741L110.086 39.8755V37.5781C110.086 26.9313 118.707 18.3225 129.342 18.3225C132.615 18.3225 135.702 19.1377 138.395 20.5828L166.272 36.6765Z" fill="url(#paint2_linear_134_14)"/>
<defs>
<linearGradient id="paint0_linear_134_14" x1="9.63299" y1="46.2613" x2="102.329" y2="206.828" gradientUnits="userSpaceOnUse">
<stop offset="0.01" stop-color="#F6B360"/>
<stop offset="1" stop-color="#F36C64"/>
</linearGradient>
<linearGradient id="paint1_linear_134_14" x1="70.4752" y1="11.0848" x2="163.221" y2="171.725" gradientUnits="userSpaceOnUse">
<stop offset="0.01" stop-color="#F6B360"/>
<stop offset="1" stop-color="#F36C64"/>
</linearGradient>
<linearGradient id="paint2_linear_134_14" x1="125.056" y1="17.8161" x2="175.708" y2="105.559" gradientUnits="userSpaceOnUse">
<stop stop-color="#F14A66"/>
<stop offset="0.99" stop-color="#F03367"/>
</linearGradient>
</defs>
</svg>
